<?xml version="1.0" encoding="UTF-8" standalone="no"?>
<!-- Source: freesvg.org #19102 "Simple Truck Side Vector Drawing" — CC0 / Public Domain
     (Openclipart origin). Metadata stripped; recoloured to currentColor for token theming.
     Used by 41e.1 truck chrome. -->
<svg xmlns="http://www.w3.org/2000/svg" viewBox="0 0 750 750">
  <g id="g3055">
    <g id="g3029">
      <g id="g3006">
        <path
           transform="matrix(1.8246126,-0.22846352,0.54756609,0.76129153,-198.58574,67.537674)"
           style="fill:currentColor;fill-opacity:1;fill-rule:nonzero;stroke:currentColor;stroke-width:1;stroke-linecap:round;stroke-linejoin:miter;stroke-miterlimit:4;stroke-dashoffset:0;stroke-opacity:1"
           d="m 381.52946,185.01733 -21.02025,-6.47515 16.11777,-14.9665 z"
           id="path4056" />
        <path
           style="fill:currentColor;fill-opacity:1;fill-rule:nonzero;stroke:currentColor;stroke-width:1.01674521;stroke-linecap:round;stroke-linejoin:miter;stroke-miterlimit:4;stroke-dashoffset:0;stroke-opacity:1"
           d="m 337.08749,261.95258 142.35628,0 0,23.69972 -142.35628,0 z"
           id="rect4014" />
        <path
           transform="matrix(1.9033027,0,0,1.7011382,-134.25254,-268.36562)"
           style="fill:currentColor;fill-opacity:1;fill-rule:nonzero;stroke:currentColor;stroke-width:0.2;stroke-linecap:round;stroke-linejoin:miter;stroke-miterlimit:4;stroke-dashoffset:0;stroke-opacity:1"
           d="m 371.76023,316.06754 c 0,11.36746 -7.31512,20.58261 -16.33878,20.58261 -9.02366,0 -16.33878,-9.21515 -16.33878,-20.58261 0,-11.36747 7.31512,-20.58262 16.33878,-20.58262 9.02366,0 16.33878,9.21515 16.33878,20.58262 z"
           id="path3949" />
        <path
           style="fill:currentColor;fill-opacity:1;fill-rule:nonzero;stroke:currentColor;stroke-width:3.07517266;stroke-linecap:round;stroke-linejoin:miter;stroke-miterlimit:4;stroke-dashoffset:0;stroke-opacity:1"
           d="m 157.0159,82.178436 330.59418,0 0,154.648924 -330.59418,0 z"
           id="rect3093" />
        <path
           style="fill:currentColor;fill-opacity:1;fill-rule:nonzero;stroke:currentColor;stroke-width:3.04311085;stroke-linecap:round;stroke-linejoin:miter;stroke-miterlimit:4;stroke-dashoffset:0;stroke-opacity:1"
           d="m 512.06262,122.05288 86.88098,0 0,146.44922 -86.88098,0 z"
           id="rect3097" />
        <path
           style="fill:currentColor;fill-opacity:1;fill-rule:nonzero;stroke:none"
           d="m 155.49313,232.30621 410.44171,0 0,37.6759 -410.44171,0 z"
           id="rect3099" />
        <path
           style="fill:#ffffff;fill-opacity:1;fill-rule:nonzero;stroke:none"
           d="m 563.84906,129.75644 28.75122,0 0,63.17258 -28.75122,0 z"
           id="rect3101" />
        <path
           style="fill:none;stroke:#ffffff;stroke-width:0.33297428;stroke-miterlimit:4;stroke-opacity:1"
           d="m 562.52673,128.08191 31.70032,0 0,135.04542 -31.70032,0 z"
           id="rect3871" />
        <path
           style="fill:#ffffff;fill-opacity:1;fill-rule:nonzero;stroke:none"
           d="m 596.03772,129.60431 3.97001,0 0,63.17258 -3.97001,0 z"
           id="rect3101-1" />
        <path
           style="fill:none;stroke:#ffffff;stroke-width:0.23830073;stroke-miterlimit:4;stroke-opacity:1"
           d="m 525.79126,127.74916 33.00716,0 0,66.43009 -33.00716,0 z"
           id="rect3871-4" />
        <path
           style="fill:#ffffff;fill-opacity:1;fill-rule:nonzero;stroke:none"
           d="m 527.56079,130.01462 29.71661,0 0,61.30398 -29.71661,0 z"
           id="rect3101-0" />
        <path
           transform="matrix(1.9033027,0,0,1.7011382,-470.23753,-268.36561)"
           style="fill:currentColor;fill-opacity:1;fill-rule:nonzero;stroke:currentColor;stroke-width:0.2;stroke-linecap:round;stroke-linejoin:miter;stroke-miterlimit:4;stroke-dashoffset:0;stroke-opacity:1"
           d="m 371.76023,316.06754 c 0,11.36746 -7.31512,20.58261 -16.33878,20.58261 -9.02366,0 -16.33878,-9.21515 -16.33878,-20.58261 0,-11.36747 7.31512,-20.58262 16.33878,-20.58262 9.02366,0 16.33878,9.21515 16.33878,20.58262 z"
           id="path3949-9" />
        <path
           transform="matrix(0.62535222,1.767323,-1.8147125,0.51295593,555.67888,-526.4014)"
           style="fill:currentColor;fill-opacity:1;fill-rule:nonzero;stroke:currentColor;stroke-width:0.2;stroke-linecap:round;stroke-linejoin:miter;stroke-miterlimit:4;stroke-dashoffset:0;stroke-opacity:1"
           d="m 349.59051,335.29481 c -8.42946,-4.05679 -12.65229,-15.95381 -9.43195,-26.57275 3.15859,-10.41533 12.32605,-15.76877 20.67671,-12.0744 l -5.41382,19.41988 z"
           id="path3949-9-4" />
        <path
           transform="matrix(1.9033027,0,0,1.7011382,-392.49424,-268.36561)"
           style="fill:currentColor;fill-opacity:1;fill-rule:nonzero;stroke:currentColor;stroke-width:0.2;stroke-linecap:round;stroke-linejoin:miter;stroke-miterlimit:4;stroke-dashoffset:0;stroke-opacity:1"
           d="m 371.76023,316.06754 c 0,11.36746 -7.31512,20.58261 -16.33878,20.58261 -9.02366,0 -16.33878,-9.21515 -16.33878,-20.58261 0,-11.36747 7.31512,-20.58262 16.33878,-20.58262 9.02366,0 16.33878,9.21515 16.33878,20.58262 z"
           id="path3949-9-8" />
        <path
           transform="matrix(0.62535222,1.767323,-1.8147125,0.51295593,633.42217,-526.4014)"
           style="fill:currentColor;fill-opacity:1;fill-rule:nonzero;stroke:currentColor;stroke-width:0.2;stroke-linecap:round;stroke-linejoin:miter;stroke-miterlimit:4;stroke-dashoffset:0;stroke-opacity:1"
           d="m 349.59051,335.29481 c -8.42946,-4.05679 -12.65229,-15.95381 -9.43195,-26.57275 3.15859,-10.41533 12.32605,-15.76877 20.67671,-12.0744 l -5.41382,19.41988 z"
           id="path3949-9-4-8" />
        <path
           transform="matrix(0.8239312,0,0,0.87860255,278.3498,-133.52131)"
           style="fill:currentColor;stroke:currentColor;stroke-width:1;stroke-linecap:round;stroke-linejoin:miter;stroke-miterlimit:4;stroke-dashoffset:0;stroke-opacity:1"
           d="m 286.88247,408.67267 c 0,8.09551 -6.56271,14.65823 -14.65823,14.65823 -8.09551,0 -14.65823,-6.56272 -14.65823,-14.65823 0,-8.09552 6.56272,-14.65823 14.65823,-14.65823 8.09552,0 14.65823,6.56271 14.65823,14.65823 z"
           id="path4010" />
        <path
           style="fill:currentColor;fill-opacity:1;fill-rule:nonzero;stroke:currentColor;stroke-width:0.85174906;stroke-linecap:round;stroke-linejoin:miter;stroke-miterlimit:4;stroke-dashoffset:0;stroke-opacity:1"
           d="m 602.62457,257.03195 c 0.73148,0 1.32036,0.2291 1.32036,0.51369 l 0,11.81471 c 0,0.28458 -0.58888,0.51368 -1.32036,0.51368 -0.73149,0 -1.32037,-0.2291 -1.32037,-0.51368 l 0,-11.81471 c 0,-0.28459 0.58888,-0.51369 1.32037,-0.51369 z"
           id="rect4016" />
        <path
           style="fill:currentColor;fill-opacity:1;fill-rule:nonzero;stroke:currentColor;stroke-width:1.57303727;stroke-linecap:round;stroke-linejoin:miter;stroke-miterlimit:4;stroke-dashoffset:0;stroke-opacity:1"
           d="m 155.68951,256.94016 c 2.49493,0 4.50349,0.2291 4.50349,0.51368 l 0,11.81471 c 0,0.28458 -2.00856,0.51369 -4.50349,0.51369 -2.49493,0 -4.50349,-0.22911 -4.50349,-0.51369 l 0,-11.81471 c 0,-0.28458 2.00856,-0.51368 4.50349,-0.51368 z"
           id="rect4016-2" />
        <path
           transform="matrix(1.8246126,-0.22846352,0.54756609,0.76129153,-243.28225,67.26607)"
           style="fill:currentColor;fill-opacity:1;fill-rule:nonzero;stroke:currentColor;stroke-width:1;stroke-linecap:round;stroke-linejoin:miter;stroke-miterlimit:4;stroke-dashoffset:0;stroke-opacity:1"
           d="m 381.52946,185.01733 -21.02025,-6.47515 16.11777,-14.9665 z"
           id="path4056-5" />
        <path
           style="fill:currentColor;fill-opacity:1;fill-rule:nonzero;stroke:currentColor;stroke-width:1.3173151;stroke-linecap:round;stroke-linejoin:miter;stroke-miterlimit:4;stroke-dashoffset:0;stroke-opacity:1"
           d="m 534.16962,105.76441 43.1871,0 0,14.8854 -43.1871,0 z"
           id="rect4076" />
        <path
           id="path4080"
           d="m 511.86909,120.69559 86.77224,-0.19988"
           style="fill:none;stroke:#ffffff;stroke-width:0.35987669;stroke-linecap:butt;stroke-linejoin:miter;stroke-miterlimit:4;stroke-opacity:1;stroke-dasharray:none" />
        <path
           style="fill:none;stroke:currentColor;stroke-width:3.76980972;stroke-linecap:round;stroke-linejoin:miter;stroke-miterlimit:4;stroke-dashoffset:0;stroke-opacity:1"
           d="m 488.12326,82.425262 17.61311,0 0,39.391058 -17.61311,0 z"
           id="rect3004" />
        <path
           style="fill:#ffffff;fill-opacity:1;fill-rule:nonzero;stroke:currentColor;stroke-width:0.5;stroke-miterlimit:4;stroke-opacity:1"
           d="m 162.12122,89.393936 320.26892,0 0,136.511874 -320.26892,0 z"
           id="rect3774" />
      </g>
    </g>
  </g>
</svg>
